<svg width="826" height="191" viewBox="0 0 826 191" fill="none" xmlns="http://www.w3.org/2000/svg">
<path d="M283.949 37.2863V60.631H225.221V84.8209H278.04V107.168H225.221V131.527H285.799V154.72H198.905V37.2863H283.949Z" fill="#1C1842"/>
<path d="M392.609 37.2863H418.925V154.72H392.609L336.411 81.1358V154.72H310.095V37.2863H334.73L392.609 112.882V37.2863Z" fill="#1C1842"/>
<path d="M485.598 104.819L506.515 37.2863H534.019L554.767 104.819L578.214 37.2863H606.737L565.565 154.72H545.989L520.165 73.0725L494.511 154.72H474.936L433.764 37.2863H462.287L485.581 104.819H485.598Z" fill="#1C1842"/>
<path d="M699.366 154.72L688.398 129.347H638.958L627.99 154.72H599.976L650.927 37.2863H676.411L727.363 154.72H699.349H699.366ZM663.763 72.2273L648.907 106.34H678.432L663.746 72.2273H663.763Z" fill="#1C1842"/>
<path d="M784.445 154.72H758.129V108.352L717.297 37.2863H745.82L771.304 80.9668L796.788 37.2863H825.312L784.479 108.352V154.72H784.445Z" fill="#1C1842"/>
<path d="M130.895 20.0234L103.934 4.53912C93.9847 -1.1745 81.7265 -1.1745 71.7773 4.53912L44.833 19.9896L16.9718 35.9979C7.02266 41.7115 0.893555 52.2935 0.893555 63.7377V126.892C0.893555 138.336 7.02266 148.918 16.9718 154.632L71.7773 186.175C81.7265 191.905 94.0016 191.905 103.951 186.192L130.674 170.86L130.623 170.809L49.4171 124.187C46.0214 122.226 43.9161 118.626 43.9161 114.721V76.3482C43.9161 72.4433 46.0214 68.8258 49.4171 66.865L81.9811 48.0844C85.6144 45.9883 90.1137 45.9883 93.747 48.0844L130.674 69.3161L131.371 69.7387L174.342 45.0078L130.878 20.0065L130.895 20.0234Z" fill="#6759DF"/>
<path d="M131.365 69.7361L130.805 70.0573L130.635 70.1587L95.2186 90.5283C91.9248 92.4215 91.8908 97.1547 95.1846 99.0818L125.151 116.696C128.547 118.657 130.652 122.257 130.652 126.162V170.84L158.819 154.646C168.785 148.915 174.914 138.333 174.914 126.889V105.556C174.914 98.8789 171.332 92.7089 165.525 89.3619L131.382 69.7361H131.365Z" fill="#6759DF"/>
</svg>
