<svg width="574" height="534" viewBox="0 0 574 534" fill="none" xmlns="http://www.w3.org/2000/svg">
<g clip-path="url(#clip0_85_2)">
<path d="M400.24 200.333H548.333C562.325 200.333 573.667 211.675 573.667 225.666V360.56C573.667 411.981 531.982 453.666 480.56 453.666H480.12C428.699 453.674 387.007 411.994 387 360.573V213.573C387 206.261 392.928 200.333 400.24 200.333Z" fill="#5059C9"/>
<path d="M500.333 173.666C533.471 173.666 560.333 146.804 560.333 113.666C560.333 80.5294 533.471 53.6665 500.333 53.6665C467.196 53.6665 440.333 80.5294 440.333 113.666C440.333 146.804 467.196 173.666 500.333 173.666Z" fill="#5059C9"/>
<path d="M313.667 173.667C361.531 173.667 400.333 134.865 400.333 87C400.333 39.1353 361.531 0.333252 313.667 0.333252C265.802 0.333252 227 39.1353 227 87C227 134.865 265.802 173.667 313.667 173.667Z" fill="#7B83EB"/>
<path d="M429.227 200.333H184.773C170.949 200.675 160.013 212.148 160.334 225.973V379.827C158.403 462.79 224.039 531.636 307 533.667C389.961 531.636 455.597 462.79 453.667 379.827V225.973C453.987 212.148 443.051 200.675 429.227 200.333Z" fill="#7B83EB"/>
<path opacity="0.1" d="M320.333 200.333V415.933C320.267 425.82 314.276 434.702 305.133 438.466C302.222 439.698 299.094 440.332 295.933 440.333H172.067C170.333 435.933 168.733 431.533 167.4 427C162.732 411.701 160.351 395.795 160.333 379.8V225.933C160.013 212.13 170.931 200.675 184.733 200.333H320.333Z" fill="black"/>
<path opacity="0.2" d="M307 200.333V429.266C307 432.427 306.365 435.556 305.133 438.466C301.369 447.609 292.487 453.6 282.6 453.666H178.333C176.067 449.266 173.933 444.866 172.067 440.333C170.2 435.8 168.733 431.533 167.4 427C162.732 411.701 160.351 395.795 160.333 379.8V225.933C160.013 212.13 170.931 200.675 184.733 200.333H307Z" fill="black"/>
<path opacity="0.2" d="M307 200.333V402.6C306.899 416.033 296.034 426.898 282.6 427H167.4C162.733 411.701 160.352 395.795 160.334 379.8V225.933C160.013 212.13 170.931 200.675 184.734 200.333H307Z" fill="black"/>
<path opacity="0.2" d="M293.667 200.333V402.6C293.565 416.033 282.7 426.898 269.267 427H167.4C162.733 411.701 160.352 395.795 160.334 379.8V225.933C160.013 212.13 170.931 200.675 184.734 200.333H293.667Z" fill="black"/>
<path opacity="0.1" d="M320.333 131.4V173.4C318.067 173.533 315.933 173.667 313.667 173.667C311.4 173.667 309.267 173.533 307 173.4C302.499 173.101 298.036 172.387 293.667 171.267C266.667 164.873 244.36 145.937 233.667 120.333C231.827 116.034 230.398 111.569 229.4 107H295.933C309.388 107.051 320.282 117.945 320.333 131.4Z" fill="black"/>
<path opacity="0.2" d="M307 144.733V173.4C302.5 173.101 298.036 172.387 293.667 171.267C266.667 164.873 244.36 145.937 233.667 120.333H282.6C296.055 120.384 306.949 131.279 307 144.733Z" fill="black"/>
<path opacity="0.2" d="M307 144.733V173.4C302.5 173.101 298.036 172.387 293.667 171.267C266.667 164.873 244.36 145.937 233.667 120.333H282.6C296.055 120.384 306.949 131.279 307 144.733Z" fill="black"/>
<path opacity="0.2" d="M293.666 144.733V171.266C266.666 164.872 244.36 145.937 233.667 120.333H269.266C282.721 120.384 293.615 131.279 293.666 144.733Z" fill="black"/>
<path d="M24.7734 120.333H269.227C282.724 120.333 293.666 131.276 293.666 144.773V389.226C293.666 402.724 282.724 413.666 269.227 413.666H24.7734C11.2755 413.666 0.333496 402.724 0.333496 389.226V144.773C0.333496 131.276 11.2757 120.333 24.7734 120.333Z" fill="url(#paint0_linear_85_2)"/>
<path d="M211.32 213.373H162.453V346.44H131.32V213.373H82.6802V187.56H211.32V213.373Z" fill="white"/>
</g>
<defs>
<linearGradient id="paint0_linear_85_2" x1="51.2914" y1="101.236" x2="242.709" y2="432.763" gradientUnits="userSpaceOnUse">
<stop stop-color="#5A62C3"/>
<stop offset="0.5" stop-color="#4D55BD"/>
<stop offset="1" stop-color="#3940AB"/>
</linearGradient>
<clipPath id="clip0_85_2">
<rect width="574" height="534" fill="white"/>
</clipPath>
</defs>
</svg>
